:SAMPLES-PER-SECOND 30
:FULLY-SPECIFIED
:DEGREES
804
root  20.8097 39.4213 8.39318 -176.809 -64.1842 173.085
RightUpLeg  2.58656 -8.94469 -1.92288
RightLeg  11.4562 2.5377 0.906084
RightFoot  -11.3834 -0.0781593 -3.49255
RightToes  -2.21189e-009 0 -3.6325e-017
Spine  7.78682 -1.55185 8.28726
Spine1  5.63086 -0.562041 -1.76653
HEad  -27.5878 2.01598 -3.7123
LeftShoulder1  -0.201444 4.0756 -29.0596
LeftArm  -4.50722 12.7557 -44.4174
LeftForeArm  20.0269 -19.0098 -4.37289
LeftHand  -0.028597 2.5923 0.664305
RightShoulder  -0.474923 -4.94801 26.031
RightArm  9.14407 -5.33641 41.774
RightForeArm  2.26268 7.82519 5.57933
RightHand  -0.418472 4.09211 -5.39009
LeftUpLeg  -14.3239 2.07848 -1.29865
LeftLeg  20.6524 -0.421047 0.143815
LeftFoot  -5.41009 0.245887 -4.1131
LeftToes  -4.03379e-008 1.61488e-010 -5.81581e-011
805
root  20.5539 39.4313 7.96858 -177.136 -63.0015 173.151
RightUpLeg  3.79161 -8.74476 -1.70838
RightLeg  10.8143 3.45302 0.930965
RightFoot  -11.6378 -0.0883852 -3.7884
RightToes  -2.21189e-009 0 -3.6325e-017
Spine  7.5935 -1.46411 7.72712
Spine1  6.23532 -0.604669 -1.54105
HEad  -28.1336 2.11872 -3.8821
LeftShoulder1  -0.228097 4.14588 -29.3707
LeftArm  -4.82204 12.9383 -43.9931
LeftForeArm  20.4669 -17.1012 -4.89021
LeftHand  -0.0336637 3.89746 0.870704
RightShoulder  -0.466016 -4.92141 26.0098
RightArm  9.22777 -4.98603 41.862
RightForeArm  2.24712 7.94307 5.61692
RightHand  -0.376869 3.95544 -4.94859
LeftUpLeg  -14.8422 2.78933 -3.06668
LeftLeg  18.3015 -0.295741 0.228074
LeftFoot  -4.97667 0.305695 -4.96155
LeftToes  -4.03379e-008 1.61488e-010 -5.81581e-011
806
root  20.2571 39.4352 7.52539 -177.217 -61.6094 173.05
RightUpLeg  5.03029 -8.52159 -1.57302
RightLeg  9.98584 4.48398 0.841599
RightFoot  -11.9179 -0.100783 -4.02128
RightToes  -2.21189e-009 0 -3.6325e-017
Spine  7.3247 -1.35937 7.43088
Spine1  6.60845 -0.457756 -1.99008
HEad  -28.0873 2.41274 -3.89361
LeftShoulder1  -0.154376 3.94 -29.2465
LeftArm  -5.8742 13.519 -43.694
LeftForeArm  22.1271 -15.1023 -5.36215
LeftHand  -0.0208878 4.46725 -0.348619
RightShoulder  -0.437444 -4.83064 26.0597
RightArm  9.12723 -4.80004 42.4508
RightForeArm  1.55717 7.82302 5.65209
RightHand  -0.426499 3.93151 -5.56379
LeftUpLeg  -14.926 4.31929 -4.89438
LeftLeg  14.7377 -0.343592 0.138521
LeftFoot  -4.36501 0.351931 -5.34423
LeftToes  -4.03379e-008 1.61488e-010 -5.81581e-011
807
root  19.9245 39.4055 7.04515 -177.112 -60.2257 173.226
RightUpLeg  5.7024 -8.15102 -1.17906
RightLeg  9.52843 5.31513 0.687577
RightFoot  -12.4046 -0.124349 -4.35743
RightToes  -2.21189e-009 0 -3.6325e-017
Spine  6.68001 -1.27368 6.99059
Spine1  6.74574 -0.428038 -2.18511
HEad  -28.2199 2.83476 -3.85372
LeftShoulder1  -0.186382 4.02985 -29.2718
LeftArm  -7.12916 14.3303 -43.2644
LeftForeArm  23.6836 -13.4323 -5.60927
LeftHand  -0.0186957 4.38236 -0.849618
RightShoulder  -0.396781 -4.7018 26.0835
RightArm  8.98303 -4.47274 43.2891
RightForeArm  1.6116 7.59209 5.65936
RightHand  -0.500362 4.18522 -6.34276
LeftUpLeg  -15.1876 4.67456 -6.05191
LeftLeg  10.709 1.12579 -0.34149
LeftFoot  -3.37693 0.413676 -5.64139
LeftToes  -4.03379e-008 1.61488e-010 -5.81581e-011
808
root  19.5578 39.3689 6.54179 -177.611 -58.8318 173.551
RightUpLeg  7.08104 -7.88664 -0.86782
RightLeg  8.93531 6.2459 0.600825
RightFoot  -12.8738 -0.152127 -4.87785
RightToes  -2.21189e-009 0 -3.6325e-017
Spine  6.83743 -0.986523 6.78182
Spine1  6.54378 -0.0297111 -2.70642
HEad  -27.7925 2.77629 -3.83533
LeftShoulder1  -0.151086 3.93399 -28.9821
LeftArm  -8.4536 15.0317 -43.2259
LeftForeArm  25.0342 -11.8862 -5.68257
LeftHand  -0.0218931 4.74027 -1.39358
RightShoulder  -0.543826 -5.12182 26.8464
RightArm  9.37767 -4.23556 43.5424
RightForeArm  1.69414 7.77851 5.81806
RightHand  -0.470176 3.46741 -6.40385
LeftUpLeg  -14.4495 2.4207 -6.11047
LeftLeg  6.13054 4.95871 -1.35193
LeftFoot  -1.97813 0.49821 -5.94321
LeftToes  -4.03379e-008 1.61488e-010 -5.81581e-011
809
root  19.1315 39.3185 6.00915 -178.362 -57.6505 173.995
RightUpLeg  8.9342 -7.74651 -0.631868
RightLeg  8.00531 7.21839 0.624393
RightFoot  -13.1929 -0.17726 -5.45214
RightToes  -2.21189e-009 0 -3.6325e-017
Spine  6.49707 -0.937244 6.52418
Spine1  7.0934 0.0868766 -3.06917
HEad  -27.8117 3.27076 -3.91301
LeftShoulder1  -0.14099 3.90201 -29.2556
LeftArm  -8.97069 15.6554 -42.6211
LeftForeArm  25.1863 -10.8277 -5.73546
LeftHand  -0.0252535 4.98833 -0.707651
RightShoulder  -0.536343 -5.10357 26.7192
RightArm  9.2491 -4.01338 44.8267
RightForeArm  2.49489 7.7628 5.81896
RightHand  -0.464563 3.57617 -6.25947
LeftUpLeg  -13.4043 -0.154798 -6.19411
LeftLeg  1.83453 8.41486 -1.95211
LeftFoot  -0.280222 0.537547 -5.54023
LeftToes  -4.03379e-008 1.61488e-010 -5.81581e-011
810
root  18.6805 39.2106 5.45752 -178.826 -56.7171 174.313
RightUpLeg  10.2991 -7.73613 -0.496414
RightLeg  7.89944 8.03294 0.773347
RightFoot  -14.0125 -0.223537 -5.53819
RightToes  -2.21189e-009 0 -3.6325e-017
Spine  6.09372 -0.901584 6.35141
Spine1  7.48392 0.254757 -3.67134
HEad  -27.7315 3.32002 -4.04357
LeftShoulder1  -0.121514 3.8489 -29.0719
LeftArm  -9.60451 16.211 -42.31
LeftForeArm  25.5925 -9.9654 -5.61427
LeftHand  -0.0243696 4.94608 -0.822233
RightShoulder  -0.613001 -5.3019 27.3729
RightArm  9.56719 -3.68807 45.6447
RightForeArm  2.55675 8.03647 5.9889
RightHand  -0.499716 3.82285 -6.55061
LeftUpLeg  -12.8228 -1.04436 -6.75951
LeftLeg  -0.829896 9.24267 -1.95616
LeftFoot  1.06065 0.516176 -4.80741
LeftToes  -4.03379e-008 1.61488e-010 -5.81581e-011
811
root  18.1697 39.0734 4.85079 -179.272 -55.9205 174.619
RightUpLeg  11.7282 -7.78887 -0.383804
RightLeg  7.99233 8.86017 0.945177
RightFoot  -15.0446 -0.283149 -5.594
RightToes  -2.21189e-009 0 -3.6325e-017
Spine  5.46161 -0.850191 5.88459
Spine1  8.01756 0.306336 -3.79524
HEad  -27.9548 3.79206 -4.25938
LeftShoulder1  -0.138065 3.89414 -29.2259
LeftArm  -9.71021 16.6194 -41.6892
LeftForeArm  25.556 -9.60104 -5.58153
LeftHand  -0.0246902 4.96169 -0.917012
RightShoulder  -0.578826 -5.20037 27.3559
RightArm  10.0488 -3.6283 46.8421
RightForeArm  3.16824 8.22172 6.1904
RightHand  -0.470073 3.72941 -6.23296
LeftUpLeg  -12.1987 -1.31574 -7.22088
LeftLeg  -1.9666 9.21552 -1.91936
LeftFoot  1.76447 0.508745 -4.49596
LeftToes  -4.03379e-008 1.61488e-010 -5.81581e-011
812
root  17.6145 38.9171 4.1972 -179.588 -55.0518 174.983
RightUpLeg  12.7765 -7.83002 -0.269916
RightLeg  8.7174 9.81645 1.25347
RightFoot  -16.0007 -0.351988 -5.99543
RightToes  -2.21189e-009 0 -3.6325e-017
Spine  4.73272 -0.686663 5.2636
Spine1  8.26868 0.434088 -3.69124
HEad  -27.6465 3.71844 -4.12743
LeftShoulder1  -0.201151 4.06846 -29.4643
LeftArm  -9.63423 17.1353 -40.8632
LeftForeArm  25.2135 -9.78093 -5.52322
LeftHand  -0.0210448 4.70251 -1.12887
RightShoulder  -0.502152 -4.9868 27.0338
RightArm  10.4278 -4.08553 48.3224
RightForeArm  3.76473 8.52068 6.36271
RightHand  -0.504983 4.23459 -6.34766
LeftUpLeg  -11.7927 -1.26224 -7.36821
LeftLeg  -1.54905 8.24311 -1.83271
LeftFoot  3.01649 0.515215 -4.24398
LeftToes  -4.03379e-008 1.61488e-010 -5.81581e-011
813
root  17.012 38.8125 3.52112 -179.366 -54.2337 174.478
RightUpLeg  14.4749 -7.99991 -0.86525
RightLeg  8.70462 10.8816 1.51608
RightFoot  -16.7502 -0.387652 -5.80913
RightToes  -2.21189e-009 0 -3.6325e-017
Spine  4.2491 -0.448919 4.12377
Spine1  8.48061 0.718558 -3.88659
HEad  -28.2961 4.52672 -4.98077
LeftShoulder1  -0.251866 4.20708 -29.6658
LeftArm  -8.90406 17.7205 -39.8448
LeftForeArm  24.2485 -10.6685 -5.6457
LeftHand  -0.0312478 5.32976 -1.09539
RightShoulder  -0.504225 -4.99185 27.043
RightArm  11.5671 -4.35102 49.218
RightForeArm  5.63638 8.88998 6.68207
RightHand  -0.386699 3.81067 -5.14817
LeftUpLeg  -11.5063 -1.15907 -7.9955
LeftLeg  0.00911808 6.53962 -1.65521
LeftFoot  6.61569 -0.135225 0.390315
LeftToes  -4.03379e-008 1.61488e-010 -5.81581e-011
814
root  16.3767 38.7793 2.80705 -178.849 -53.5909 173.346
RightUpLeg  16.3611 -8.08013 -1.87294
RightLeg  8.86224 11.9562 1.6918
RightFoot  -17.0043 -0.357166 -4.89641
RightToes  -2.21189e-009 0 -3.6325e-017
Spine  3.54804 -0.345279 2.91778
Spine1  9.28165 1.08532 -4.81669
HEad  -28.6834 4.4926 -4.81327
LeftShoulder1  -0.220173 4.12234 -29.4431
LeftArm  -8.85973 17.7956 -39.1506
LeftForeArm  23.575 -11.0643 -5.55191
LeftHand  -0.0436232 6.01789 -1.3492
RightShoulder  -0.562304 -5.14189 27.5596
RightArm  12.7794 -4.10204 50.0123
RightForeArm  7.60121 9.04955 7.03405
RightHand  -0.376593 3.45555 -5.17976
LeftUpLeg  -11.0896 -1.07658 -9.02397
LeftLeg  1.94334 7.13092 -1.38073
LeftFoot  9.48512 -1.61362 8.57905
LeftToes  -4.03379e-008 1.61488e-010 -5.81581e-011
